#
#
#

mtllib dwarfAxe.mtl


#
# MeshMesh
#
g MeshMesh


#
# MeshMesh_lambert1
#
usemtl MeshMesh_lambert1

v 0.061098 0.369468 -1.104360
v 0.061098 0.617821 -1.054959
v 0.061098 0.828364 -0.914279
v 0.061098 0.969045 -0.703735
v 0.061098 1.018445 -0.455382
v 0.061098 -0.279509 -0.455382
v 0.061098 -0.230109 -0.703735
v 0.061098 -0.089428 -0.914279
v 0.061098 0.121115 -1.054959
v 0.061098 0.369468 -0.334133
v 0.061098 0.685801 -0.334133
v 0.061098 0.834396 -0.484503
v 0.061098 0.045630 -0.334133
v 0.061098 -0.087976 -0.484503
v 0.061098 0.368805 0.009120
v 0.061098 0.546039 0.009120
v 0.061098 0.186055 0.009120
v -0.062319 0.369468 -1.104360
v -0.062319 0.617821 -1.054959
v -0.062319 0.828364 -0.914279
v -0.062319 0.969045 -0.703735
v -0.062319 1.018445 -0.455382
v -0.000610 -0.536494 -0.743255
v -0.000610 -0.611139 -0.367992
v -0.000610 1.350075 -0.367992
v -0.000610 1.275431 -0.743254
v -0.000610 1.062862 -1.061386
v -0.000610 0.744730 -1.273955
v -0.000610 0.369468 -1.348599
v -0.062319 -0.279509 -0.455382
v -0.062319 -0.230109 -0.703735
v -0.062319 -0.089428 -0.914279
v -0.062319 0.121115 -1.054959
v -0.000610 -0.323925 -1.061386
v -0.000610 -0.005793 -1.273955
v -0.062319 0.369468 -0.334133
v -0.062319 0.685801 -0.334133
v -0.062319 0.834396 -0.484503
v -0.062319 0.045630 -0.334133
v -0.062319 -0.087976 -0.484503
v -0.062319 0.368805 0.009120
v -0.062319 0.546039 0.009120
v -0.062319 0.186055 0.009120
v 0.145937 -2.454662 0.004820
v 0.073538 -2.454662 -0.120580
v -0.071262 -2.454662 -0.120580
v -0.143661 -2.454662 0.004820
v -0.071262 -2.454662 0.130220
v 0.073538 -2.454662 0.130220
v 0.073538 -0.089735 0.130220
v -0.143658 -0.089739 0.004820
v -0.071262 -0.089735 0.130220
v 0.145935 -0.089739 0.004823
v 0.073538 -0.089735 -0.120577
v -0.071261 -0.089735 -0.120577
v 0.174532 -2.475993 0.004820
v 0.087835 -2.475993 -0.145343
v -0.085559 -2.475993 -0.145343
v -0.172256 -2.475993 0.004820
v -0.085559 -2.475993 0.154984
v 0.087835 -2.475993 0.154984
v 0.174532 -2.596864 0.004820
v 0.087835 -2.596864 -0.145343
v -0.085559 -2.596864 -0.145343
v -0.172256 -2.596864 0.004820
v -0.085559 -2.596864 0.154984
v 0.087835 -2.596864 0.154984
v 0.156590 -2.622637 0.004820
v 0.078864 -2.622637 -0.129805
v -0.076588 -2.622637 -0.129805
v -0.154314 -2.622637 0.004820
v -0.076588 -2.622637 0.139446
v 0.078864 -2.622637 0.139446
v 0.001138 -2.649867 0.004820
v 0.092169 -0.085985 0.162490
v -0.180920 -0.085990 0.004820
v -0.089893 -0.085985 0.162490
v 0.183196 -0.085990 0.004823
v 0.092170 -0.085985 -0.152847
v -0.089892 -0.085985 -0.152847
v 0.092169 0.943410 0.162490
v -0.180920 0.943405 0.004820
v -0.089893 0.943410 0.162490
v 0.183196 0.943405 0.004823
v 0.092170 0.943410 -0.152847
v -0.089892 0.943410 -0.152847
v 0.073635 0.945584 0.130389
v -0.143852 0.945580 0.004820
v -0.071359 0.945584 0.130389
v 0.146129 0.945580 0.004823
v 0.073636 0.945584 -0.120746
v -0.071358 0.945584 -0.120746
v 0.073635 1.068156 0.130389
v -0.143852 1.068152 0.004820
v -0.071359 1.068156 0.130389
v 0.146129 1.068152 0.004823
v 0.073636 1.068156 -0.120746
v -0.071358 1.068156 -0.120746
v 0.052715 1.143272 0.094154
v -0.102013 1.143270 0.004821
v -0.050438 1.143272 0.094154
v 0.104289 1.143270 0.004822
v 0.052715 1.143272 -0.084511
v -0.050438 1.143272 -0.084511
v 0.061098 0.369566 1.099189
v 0.061098 0.617919 1.049788
v 0.061098 0.828462 0.909108
v 0.061098 0.969143 0.698564
v 0.061098 1.018543 0.450212
v 0.061098 -0.279412 0.450212
v 0.061098 -0.230011 0.698565
v 0.061098 -0.089330 0.909108
v 0.061098 0.121213 1.049788
v 0.061098 0.369566 0.328962
v 0.061098 0.685899 0.328962
v 0.061098 0.834494 0.479332
v 0.061098 0.045728 0.328962
v 0.061098 -0.087878 0.479332
v 0.061098 0.368903 -0.014291
v 0.061098 0.546137 -0.014291
v 0.061098 0.186153 -0.014291
v -0.062319 0.369566 1.099189
v -0.062319 0.617919 1.049788
v -0.062319 0.828462 0.909108
v -0.062319 0.969143 0.698564
v -0.062319 1.018543 0.450212
v -0.000610 -0.536397 0.738084
v -0.000610 -0.611041 0.362822
v -0.000610 1.350173 0.362822
v -0.000610 1.275529 0.738084
v -0.000610 1.062960 1.056216
v -0.000610 0.744828 1.268784
v -0.000610 0.369566 1.343428
v -0.062319 -0.279412 0.450212
v -0.062319 -0.230011 0.698565
v -0.062319 -0.089330 0.909108
v -0.062319 0.121213 1.049788
v -0.000610 -0.323828 1.056216
v -0.000610 -0.005696 1.268785
v -0.062319 0.369566 0.328962
v -0.062319 0.685899 0.328962
v -0.062319 0.834494 0.479332
v -0.062319 0.045728 0.328962
v -0.062319 -0.087878 0.479332
v -0.062319 0.368903 -0.014291
v -0.062319 0.546137 -0.014291
v -0.062319 0.186153 -0.014291
v 0.073538 -2.454662 -0.120580
v 0.145937 -2.454662 0.004820
v -0.071262 -2.454662 -0.120580
v -0.143661 -2.454662 0.004820
v -0.071262 -2.454662 0.130220
v 0.073538 -2.454662 0.130220
v 0.073538 -0.089735 0.130220
v -0.071262 -0.089735 0.130220
v -0.143658 -0.089739 0.004820
v 0.145935 -0.089739 0.004823
v 0.073538 -0.089735 -0.120577
v -0.071261 -0.089735 -0.120577
v 0.087835 -2.475993 -0.145343
v 0.174532 -2.475993 0.004820
v -0.085559 -2.475993 -0.145343
v -0.172256 -2.475993 0.004820
v -0.085559 -2.475993 0.154984
v 0.087835 -2.475993 0.154984
v 0.087835 -2.596864 -0.145343
v 0.174532 -2.596864 0.004820
v -0.085559 -2.596864 -0.145343
v -0.172256 -2.596864 0.004820
v -0.085559 -2.596864 0.154984
v 0.087835 -2.596864 0.154984
v 0.078864 -2.622637 -0.129805
v 0.156590 -2.622637 0.004820
v -0.076588 -2.622637 -0.129805
v -0.154314 -2.622637 0.004820
v -0.076588 -2.622637 0.139446
v 0.078864 -2.622637 0.139446
v 0.092169 -0.085985 0.162490
v -0.089893 -0.085985 0.162490
v -0.180920 -0.085990 0.004820
v 0.183196 -0.085990 0.004823
v 0.092170 -0.085985 -0.152847
v -0.089892 -0.085985 -0.152847
v 0.092169 0.943410 0.162490
v -0.089893 0.943410 0.162490
v -0.180920 0.943405 0.004820
v 0.183196 0.943405 0.004823
v 0.092170 0.943410 -0.152847
v -0.089892 0.943410 -0.152847
v 0.073635 0.945584 0.130389
v -0.071359 0.945584 0.130389
v -0.143852 0.945580 0.004820
v 0.146129 0.945580 0.004823
v 0.073636 0.945584 -0.120746
v -0.071358 0.945584 -0.120746
v 0.073635 1.068156 0.130389
v -0.071359 1.068156 0.130389
v -0.143852 1.068152 0.004820
v 0.146129 1.068152 0.004823
v 0.073636 1.068156 -0.120746
v -0.071358 1.068156 -0.120746
v 0.052715 1.143272 0.094154
v -0.050438 1.143272 0.094154
v -0.102013 1.143270 0.004821
v 0.104289 1.143270 0.004822
v 0.052715 1.143272 -0.084511
v -0.050438 1.143272 -0.084511
vn -0.500000 0.000000 0.866025
vn -0.500004 0.000000 0.866023
vn 0.499998 0.000000 0.866027
vn 0.500002 0.000000 0.866024
vn -1.000000 0.000001 -0.000003
vn 1.000000 0.000001 0.000003
vn 0.500004 0.000001 -0.866023
vn 0.500000 0.000001 -0.866025
vn -0.500002 0.000001 -0.866024
vn -0.499998 0.000001 -0.866027
vn 0.499999 0.000000 0.866026
vn 0.500008 0.000000 0.866021
vn 1.000000 0.000000 0.000006
vn -1.000000 0.000000 -0.000006
vn -0.500008 0.000000 -0.866021
vn -0.499999 0.000000 -0.866026
vn -0.500013 0.000000 0.866018
vn -0.500005 0.000000 0.866023
vn 0.500013 0.000000 -0.866018
vn 0.500005 0.000000 -0.866023
vn 0.436815 0.486612 0.756572
vn 0.873624 0.486602 0.000006
vn 0.873624 0.486602 0.000005
vn 0.436821 0.486612 0.756569
vn -0.873624 0.486602 -0.000006
vn -0.436815 0.486612 -0.756572
vn -0.436821 0.486612 -0.756569
vn -0.873624 0.486602 -0.000005
vn -0.436820 0.486613 0.756569
vn -0.436825 0.486613 0.756566
vn 0.436820 0.486613 -0.756569
vn 0.436825 0.486613 -0.756566
vn 0.000000 1.000000 -0.000032
vn 0.000000 1.000000 0.000000
vn 0.000000 1.000000 0.000032
vn 0.000000 1.000000 0.000033
vn 0.298963 0.801552 0.517819
vn 0.597925 0.801552 0.000000
vn 0.298963 0.801553 -0.517817
vn 0.298962 0.801553 -0.517817
vn -0.597925 0.801552 0.000000
vn -0.298963 0.801554 -0.517816
vn -0.298963 0.801552 0.517817
vn 0.500000 0.000000 -0.866026
vn -0.500000 0.000000 -0.866025
vn -0.500000 0.000000 0.866026
vn -1.000000 0.000000 0.000000
vn 0.500000 0.000000 0.866025
vn 1.000000 0.000000 0.000000
vn 0.410362 -0.571327 -0.710766
vn -0.410362 -0.571326 -0.710767
vn -0.410362 -0.571327 -0.710766
vn 0.410362 -0.571327 -0.710767
vn -0.410361 -0.571328 0.710766
vn -0.820723 -0.571327 0.000001
vn 0.410361 -0.571328 0.710766
vn 0.820723 -0.571327 0.000001
vn -0.086270 -0.985003 -0.149421
vn 0.086270 -0.985003 -0.149423
vn 0.000000 -1.000000 0.000000
vn -0.086270 -0.985003 0.149420
vn -0.172540 -0.985003 -0.000001
vn 0.172539 -0.985003 0.000000
vn 0.086270 -0.985003 0.149423
vn 0.980540 0.192548 -0.038300
vn 0.968385 -0.048667 -0.244668
vn 0.968385 0.048667 -0.244667
vn 0.980540 -0.192548 -0.038300
vn 0.976024 0.180981 -0.120927
vn 0.971432 -0.131847 -0.197323
vn -0.980540 0.192548 -0.038300
vn -0.968385 -0.048667 -0.244667
vn -0.968385 0.048667 -0.244667
vn -0.980540 -0.192548 -0.038300
vn -0.976024 0.180981 -0.120928
vn -0.971432 -0.131847 -0.197323
vn 0.000000 0.254818 0.966989
vn 0.000000 -0.747548 0.664208
vn 0.000000 -0.925544 0.378641
vn 0.000000 0.150313 0.988639
vn 0.000000 0.926169 0.377108
vn 0.000000 -0.156278 0.987713
vn 0.000000 0.711293 0.702895
vn 0.000000 -0.254818 0.966989
vn 0.980540 0.192548 0.038300
vn 0.968385 -0.048667 0.244668
vn 0.968385 0.048667 0.244668
vn 0.980540 -0.192548 0.038300
vn 0.976024 0.180981 0.120928
vn 0.971432 -0.131847 0.197323
vn -0.980540 0.192548 0.038300
vn -0.968385 -0.048667 0.244668
vn -0.968385 0.048668 0.244667
vn -0.980540 -0.192548 0.038300
vn -0.976024 0.180981 0.120928
vn -0.971432 -0.131847 0.197323
vn 0.000000 0.254818 -0.966989
vn 0.000000 -0.747548 -0.664208
vn 0.000000 -0.925544 -0.378641
vn 0.000000 0.150313 -0.988638
vn 0.000000 0.926169 -0.377108
vn 0.000000 -0.156278 -0.987713
vn 0.000000 0.711293 -0.702895
vn 0.000000 -0.254818 -0.966989
vn -0.050052 -0.994974 0.086721
vn -0.100104 -0.994977 -0.000001
vn -0.100104 -0.994977 0.000000
vn 0.100104 -0.994977 0.000001
vn 0.050052 -0.994975 -0.086720
vn 0.050052 -0.994974 -0.086721
vn 0.100104 -0.994977 0.000000
vn -0.050052 -0.994974 -0.086721
vn -0.050051 -0.994975 -0.086721
vn 0.050052 -0.994974 0.086721
vn -0.500000 0.000000 -0.866026
vn 0.058592 0.998282 0.000000
vn 0.029296 0.998284 0.050714
vn -0.058592 0.998282 0.000000
vn -0.029296 0.998284 -0.050712
vn -0.029296 0.998284 0.050713
vn 0.029296 0.998284 -0.050712
f 52//1 48//2 50//3
f 50//3 48//2 49//4
f 48//2 51//5 47//5
f 51//5 48//2 52//1
f 44//6 53//6 49//4
f 50//3 49//4 53//6
f 45//7 53//6 44//6
f 53//6 45//7 54//8
f 51//5 46//9 47//5
f 46//9 51//5 55//10
f 46//9 55//10 45//7
f 45//7 55//10 54//8
f 93//11 190//12 96//13
f 190//12 193//13 96//13
f 94//14 195//15 192//14
f 195//15 94//14 98//16
f 191//17 94//14 192//14
f 94//14 191//17 95//18
f 96//13 194//19 97//20
f 194//19 96//13 193//13
f 195//15 98//16 194//19
f 194//19 98//16 97//20
f 93//11 95//18 191//17
f 93//11 191//17 190//12
f 99//21 199//22 102//23
f 199//22 99//21 196//24
f 198//25 104//26 201//27
f 104//26 198//25 100//28
f 101//29 198//25 197//30
f 198//25 101//29 100//28
f 102//23 199//22 103//31
f 199//22 200//32 103//31
f 201//27 103//31 200//32
f 103//31 201//27 104//26
f 196//24 101//29 197//30
f 101//29 196//24 99//21
f 203//33 202//33 204//34
f 205//34 206//35 207//36
f 202//33 205//34 204//34
f 205//34 207//36 204//34
f 153//37 56//38 149//38
f 56//38 153//37 61//37
f 56//38 57//39 148//40
f 56//38 148//40 149//38
f 59//41 150//42 58//42
f 150//42 59//41 151//41
f 60//43 61//37 153//37
f 60//43 153//37 152//43
f 150//42 148//40 57//39
f 150//42 57//39 58//42
f 152//43 151//41 59//41
f 152//43 59//41 60//43
f 63//44 64//45 162//45
f 63//44 162//45 160//44
f 66//46 164//46 65//47
f 164//46 163//47 65//47
f 67//48 161//49 165//48
f 161//49 67//48 62//49
f 62//49 160//44 161//49
f 160//44 62//49 63//44
f 65//47 163//47 64//45
f 163//47 162//45 64//45
f 164//46 66//46 165//48
f 165//48 66//46 67//48
f 166//50 70//51 168//52
f 70//51 166//50 69//53
f 72//54 169//55 71//55
f 169//55 72//54 170//54
f 73//56 167//57 171//56
f 167//57 73//56 68//57
f 167//57 69//53 166//50
f 69//53 167//57 68//57
f 70//51 71//55 169//55
f 169//55 168//52 70//51
f 171//56 170//54 72//54
f 171//56 72//54 73//56
f 174//58 172//59 74//60
f 176//61 175//62 74//60
f 173//63 177//64 74//60
f 172//59 173//63 74//60
f 175//62 174//58 74//60
f 177//64 176//61 74//60
f 5//65 26//65 25//65
f 26//65 5//65 4//65
f 1//66 9//66 29//66
f 9//66 35//66 29//66
f 29//66 2//67 1//66
f 2//67 29//66 28//67
f 24//68 23//68 6//68
f 6//68 23//68 7//68
f 27//69 4//65 3//69
f 4//65 27//69 26//65
f 35//66 8//70 34//70
f 35//66 9//66 8//70
f 28//67 3//69 2//67
f 3//69 28//67 27//69
f 34//70 7//68 23//68
f 7//68 34//70 8//70
f 6//49 7//49 14//49
f 10//49 2//49 11//49
f 2//49 10//49 1//49
f 12//49 2//49 3//49
f 2//49 12//49 11//49
f 4//49 12//49 3//49
f 5//49 12//49 4//49
f 13//49 9//49 10//49
f 10//49 9//49 1//49
f 14//49 9//49 13//49
f 9//49 14//49 8//49
f 14//49 7//49 8//49
f 17//49 10//49 15//49
f 10//49 17//49 13//49
f 10//49 16//49 15//49
f 16//49 10//49 11//49
f 26//71 22//71 25//71
f 22//71 26//71 21//71
f 29//72 33//72 18//72
f 33//72 29//72 35//72
f 19//73 29//72 18//72
f 29//72 19//73 28//73
f 24//74 30//74 23//74
f 30//74 31//74 23//74
f 27//75 21//71 26//71
f 21//71 27//75 20//75
f 35//72 32//76 33//72
f 35//72 34//76 32//76
f 28//73 20//75 27//75
f 20//75 28//73 19//73
f 34//76 23//74 31//74
f 34//76 31//74 32//76
f 30//47 40//47 31//47
f 37//47 19//47 36//47
f 36//47 19//47 18//47
f 19//47 38//47 20//47
f 38//47 19//47 37//47
f 21//47 20//47 38//47
f 22//47 21//47 38//47
f 33//47 39//47 36//47
f 36//47 18//47 33//47
f 33//47 40//47 39//47
f 40//47 33//47 32//47
f 40//47 32//47 31//47
f 41//47 36//47 43//47
f 36//47 39//47 43//47
f 42//47 36//47 41//47
f 36//47 42//47 37//47
f 24//77 6//77 30//77
f 39//78 14//78 13//78
f 14//78 39//78 40//78
f 43//79 13//78 17//79
f 13//78 43//79 39//78
f 14//80 40//80 30//77
f 14//80 30//77 6//77
f 16//81 11//81 42//81
f 42//81 11//81 37//81
f 22//82 38//82 5//82
f 5//82 38//82 12//82
f 37//81 11//81 12//83
f 37//81 12//83 38//83
f 25//84 22//82 5//82
f 109//85 130//85 108//85
f 130//85 109//85 129//85
f 133//86 139//86 113//86
f 133//86 113//86 105//86
f 133//86 106//87 132//87
f 106//87 133//86 105//86
f 127//88 110//88 111//88
f 110//88 127//88 128//88
f 108//85 131//89 107//89
f 131//89 108//85 130//85
f 138//90 112//90 139//86
f 112//90 113//86 139//86
f 107//89 132//87 106//87
f 132//87 107//89 131//89
f 112//90 138//90 111//88
f 111//88 138//90 127//88
f 110//49 118//49 111//49
f 105//49 114//49 106//49
f 106//49 114//49 115//49
f 106//49 116//49 107//49
f 116//49 106//49 115//49
f 108//49 107//49 116//49
f 109//49 108//49 116//49
f 113//49 114//49 105//49
f 114//49 113//49 117//49
f 113//49 118//49 117//49
f 118//49 113//49 112//49
f 118//49 112//49 111//49
f 117//49 121//49 114//49
f 114//49 121//49 119//49
f 114//49 120//49 115//49
f 120//49 114//49 119//49
f 130//91 126//91 125//91
f 126//91 130//91 129//91
f 139//92 133//92 137//92
f 137//92 133//92 122//92
f 133//92 123//93 122//92
f 123//93 133//92 132//93
f 127//94 135//94 134//94
f 134//94 128//94 127//94
f 131//95 125//91 124//95
f 125//91 131//95 130//91
f 138//96 139//92 136//96
f 136//96 139//92 137//92
f 124//95 132//93 131//95
f 132//93 124//95 123//93
f 136//96 135//94 138//96
f 135//94 127//94 138//96
f 134//47 135//47 144//47
f 140//47 122//47 123//47
f 123//47 141//47 140//47
f 123//47 142//47 141//47
f 142//47 123//47 124//47
f 125//47 142//47 124//47
f 126//47 142//47 125//47
f 122//47 140//47 137//47
f 140//47 143//47 137//47
f 137//47 144//47 136//47
f 144//47 137//47 143//47
f 144//47 135//47 136//47
f 143//47 140//47 147//47
f 140//47 145//47 147//47
f 140//47 146//47 145//47
f 146//47 140//47 141//47
f 128//97 134//97 110//97
f 144//98 143//98 118//98
f 118//98 143//98 117//98
f 143//98 147//99 117//98
f 117//98 147//99 121//99
f 110//97 134//97 118//100
f 134//97 144//100 118//100
f 146//101 141//101 115//101
f 115//101 120//101 146//101
f 142//102 109//102 116//102
f 109//102 142//102 126//102
f 142//103 116//103 141//101
f 116//103 115//101 141//101
f 129//104 109//102 126//102
f 155//105 76//106 156//107
f 76//106 155//105 77//105
f 78//108 158//109 79//110
f 158//109 78//108 157//111
f 158//109 159//112 80//113
f 158//109 80//113 79//110
f 77//105 154//114 75//114
f 154//114 77//105 155//105
f 154//114 157//111 78//108
f 154//114 78//108 75//114
f 76//106 80//113 159//112
f 76//106 159//112 156//107
f 82//14 183//15 180//14
f 183//15 82//14 86//115
f 179//17 82//14 180//14
f 82//14 179//17 83//18
f 182//19 84//13 181//13
f 84//13 182//19 85//20
f 183//15 86//115 182//19
f 182//19 86//115 85//20
f 83//18 179//17 81//11
f 81//11 179//17 178//12
f 181//13 84//13 178//12
f 81//11 178//12 84//13
f 187//116 87//117 184//117
f 87//117 187//116 90//116
f 186//118 92//119 189//119
f 92//119 186//118 88//118
f 186//118 185//120 89//120
f 186//118 89//120 88//118
f 91//121 187//116 188//121
f 187//116 91//121 90//116
f 188//121 189//119 92//119
f 188//121 92//119 91//121
f 185//120 184//117 87//117
f 185//120 87//117 89//120
